<svg xmlns="http://www.w3.org/2000/svg" version="1.1" xmlns:xlink="http://www.w3.org/1999/xlink" xmlns:svgjs="http://svgjs.dev/svgjs" width="1000" height="325" viewBox="0 0 1000 325"><g transform="matrix(1,0,0,1,-0.6060606060606233,0.517180163735901)"><svg viewBox="0 0 396 129" data-background-color="#191919" preserveAspectRatio="xMidYMid meet" height="325" width="1000" xmlns="http://www.w3.org/2000/svg" xmlns:xlink="http://www.w3.org/1999/xlink"><g id="tight-bounds" transform="matrix(1,0,0,1,0.2400000000000091,-0.20528074191363999)"><svg viewBox="0 0 395.52 129.41056148382728" height="129.41056148382728" width="395.52"><g><svg viewBox="0 0 395.52 129.41056148382728" height="129.41056148382728" width="395.52"><g><svg viewBox="0 0 395.52 129.41056148382728" height="129.41056148382728" width="395.52"><g><svg viewBox="0 0 395.52 129.41056148382728" height="129.41056148382728" width="395.52"><g><rect width="395.52" height="98.01579424216766" fill="none" stroke-width="9.018103199999999" stroke="#ff0000" data-fill-palette-color="none" data-stroke-palette-color="tertiary"></rect><rect width="395.52" height="31.39476724165961" y="98.01579424216766" fill="#ff0000" data-fill-palette-color="tertiary"></rect></g><g><svg viewBox="0 0 395.52 98.01579424216766" height="98.01579424216766" width="395.52"><g transform="matrix(1,0,0,1,23.607599999999998,23.607599999999998)"><svg width="348.3048" viewBox="3.799999952316284 -34.45000076293945 236.17999267578125 34.45000076293945" height="50.800594242167655" data-palette-color="#ff0000"><path d="M16-18.2Q19.5-17.5 21.45-15.58 23.4-13.65 23.4-9.75L23.4-9.75Q23.4-4.9 20.23-2.45 17.05 0 11.5 0L11.5 0 3.8 0 3.8-34.45 10.35-34.45Q16.05-34.45 19.1-32.2 22.15-29.95 22.15-25.75L22.15-25.75Q22.15-22.8 20.53-20.9 18.9-19 16-18.2L16-18.2ZM10.8-30.85L8.35-30.85 8.35-19.8 11.3-19.8Q14.4-19.8 15.95-21.23 17.5-22.65 17.5-25.4L17.5-25.4Q17.5-28.35 15.88-29.6 14.25-30.85 10.8-30.85L10.8-30.85ZM11.5-3.65Q15-3.65 16.82-5.03 18.65-6.4 18.65-9.75L18.65-9.75Q18.65-13.2 16.93-14.73 15.2-16.25 11.65-16.25L11.65-16.25 8.35-16.25 8.35-3.65 11.5-3.65ZM49 0L44.35 0 42.3-8.75 32-8.75 29.95 0 25.45 0 34.4-34.45 40.05-34.45 49 0ZM37.15-30.65L32.85-12.4 41.45-12.4 37.15-30.65ZM73.4 0L68.84 0 68.84-16.2 57.75-16.2 57.75 0 53.2 0 53.2-34.45 57.75-34.45 57.75-19.95 68.84-19.95 68.84-34.45 73.4-34.45 73.4 0ZM101.24-34.45L101.24 0 95.19 0 84.59-29.35Q84.89-25.85 85.07-23.1 85.24-20.35 85.24-16.2L85.24-16.2 85.24 0 80.99 0 80.99-34.45 87.04-34.45 97.64-5.05Q97.44-5.8 97.22-9.15 96.99-12.5 96.99-15.4L96.99-15.4 96.99-34.45 101.24-34.45ZM139.59 0L134.94 0 132.89-8.75 122.59-8.75 120.54 0 116.04 0 124.99-34.45 130.64-34.45 139.59 0ZM127.74-30.65L123.44-12.4 132.04-12.4 127.74-30.65ZM143.79-34.45L148.34-34.45 148.34-4 159.79-4 159.29 0 143.79 0 143.79-34.45ZM184.23 0L179.58 0 177.53-8.75 167.23-8.75 165.18 0 160.68 0 169.63-34.45 175.28-34.45 184.23 0ZM172.38-30.65L168.08-12.4 176.68-12.4 172.38-30.65ZM208.83 0L203.83 0 197.13-14.75Q196.78-14.7 196.08-14.7L196.08-14.7 192.98-14.7 192.98 0 188.43 0 188.43-34.45 195.33-34.45Q201.38-34.45 204.33-31.95 207.28-29.45 207.28-24.75L207.28-24.75Q207.28-21.45 205.73-19.07 204.18-16.7 201.28-15.6L201.28-15.6 208.83 0ZM195.68-18.2Q199.28-18.2 200.88-19.78 202.48-21.35 202.48-24.75L202.48-24.75Q202.48-27.9 200.83-29.38 199.18-30.85 195.28-30.85L195.28-30.85 192.98-30.85 192.98-18.2 195.68-18.2ZM237.68-34.45L239.98 0 235.68 0 234.78-15.65Q234.13-25.35 234.23-29.8L234.23-29.8 228.38-3.9 224.13-3.9 217.98-29.85 218.03-27.55Q218.03-23.65 217.63-15.35L217.63-15.35 216.78 0 212.48 0 214.83-34.45 220.73-34.45 226.33-9.2 231.63-34.45 237.68-34.45Z" opacity="1" transform="matrix(1,0,0,1,0,0)" fill="#ff0000" class="undefined-text-0" data-fill-palette-color="primary" id="text-0"></path></svg></g></svg></g></svg></g></svg></g><g></g></svg></g><defs></defs></svg><rect width="395.52" height="129.41056148382728" fill="none" stroke="none" visibility="hidden"></rect></g></svg></g></svg>